<svg id="Layer_1" data-name="Layer 1" xmlns="http://www.w3.org/2000/svg" viewBox="0 0 262.02 213.93"><defs><style>.cls-1{fill:#fff;}.cls-2{fill:none;stroke:#000;stroke-miterlimit:10;}</style></defs><title>logo2</title><path class="cls-1" d="M280.85,255.66h0c-39.26,1.48-45.86.51-64.33-15.51l-68.7-80.61h38.36a27.61,27.61,0,0,0,9.82-1.77c.6-.23,1.23-.49,1.89-.77,10-4.27,26.51-14.78,26.09-37.67-.61-32.86-34.24-38.06-34.24-38.06L182,79.7a13,13,0,0,0-2.56-.26H95c-17.43-1.22-21.43-4.82-49.83-37.15H192.8l.3,0c4.83.73,68,11.19,68.49,73.79.3,43.42-22.17,61-39.44,71.55Z" transform="translate(-18.83 -42.29)"/><path class="cls-2" d="M190.35,159.54" transform="translate(-18.83 -42.29)"/><path class="cls-1" d="M203.82,256.22h0c-23.1-.07-49.9.2-63.57-15.65L52.39,138.75,18.83,101.3v-.46H129.2c20.94,0,37.3,21.4,50.45,37.91H102.46Z" transform="translate(-18.83 -42.29)"/></svg>